<svg version="1.1" xmlns="http://www.w3.org/2000/svg" width="512" height="512">
<path d="M0 0 C50.16 0 100.32 0 152 0 C152 9.9 152 19.8 152 30 C161.9 30 171.8 30 182 30 C182 39.9 182 49.8 182 60 C191.9 60 201.8 60 212 60 C212 69.9 212 79.8 212 90 C221.9 90 231.8 90 242 90 C242 100.23 242 110.46 242 121 C232.1 121 222.2 121 212 121 C212 130.9 212 140.8 212 151 C202.1 151 192.2 151 182 151 C182 170.47 182 189.94 182 210 C191.9 210 201.8 210 212 210 C212 219.9 212 229.8 212 240 C221.57 240 231.14 240 241 240 C241 230.1 241 220.2 241 210 C250.9 210 260.8 210 271 210 C271 190.2 271 170.4 271 150 C281.23 150 291.46 150 302 150 C302 159.9 302 169.8 302 180 C311.9 180 321.8 180 332 180 C332 190.23 332 200.46 332 211 C312.2 211 292.4 211 272 211 C272 220.9 272 230.8 272 241 C262.1 241 252.2 241 242 241 C242 260.8 242 280.6 242 301 C251.9 301 261.8 301 272 301 C272 331.03 272 361.06 272 392 C262.1 392 252.2 392 242 392 C242 411.8 242 431.6 242 452 C232.1 452 222.2 452 212 452 C212 461.9 212 471.8 212 482 C202.1 482 192.2 482 182 482 C182 491.9 182 501.8 182 512 C112.04 512 42.08 512 -30 512 C-30 502.1 -30 492.2 -30 482 C-39.9 482 -49.8 482 -60 482 C-60 472.1 -60 462.2 -60 452 C-69.9 452 -79.8 452 -90 452 C-90 432.2 -90 412.4 -90 392 C-99.9 392 -109.8 392 -120 392 C-120 361.97 -120 331.94 -120 301 C-110.1 301 -100.2 301 -90 301 C-90 281.2 -90 261.4 -90 241 C-99.9 241 -109.8 241 -120 241 C-120 231.1 -120 221.2 -120 211 C-139.8 211 -159.6 211 -180 211 C-180 200.77 -180 190.54 -180 180 C-170.1 180 -160.2 180 -150 180 C-150 170.1 -150 160.2 -150 150 C-139.77 150 -129.54 150 -119 150 C-119 169.8 -119 189.6 -119 210 C-109.1 210 -99.2 210 -89 210 C-89 219.9 -89 229.8 -89 240 C-79.43 240 -69.86 240 -60 240 C-60 230.1 -60 220.2 -60 210 C-50.1 210 -40.2 210 -30 210 C-30 190.53 -30 171.06 -30 151 C-39.9 151 -49.8 151 -60 151 C-60 141.1 -60 131.2 -60 121 C-69.9 121 -79.8 121 -90 121 C-90 110.77 -90 100.54 -90 90 C-80.1 90 -70.2 90 -60 90 C-60 80.1 -60 70.2 -60 60 C-50.1 60 -40.2 60 -30 60 C-30 50.1 -30 40.2 -30 30 C-20.1 30 -10.2 30 0 30 C0 20.1 0 10.2 0 0 Z " fill="#165483" transform="translate(180,0)"/>
<path d="M0 0 C20.13 0 40.26 0 61 0 C61 9.9 61 19.8 61 30 C70.9 30 80.8 30 91 30 C91 39.9 91 49.8 91 60 C110.8 60 130.6 60 151 60 C151 69.9 151 79.8 151 90 C141.1 90 131.2 90 121 90 C121 100.23 121 110.46 121 121 C130.9 121 140.8 121 151 121 C151 111.1 151 101.2 151 91 C160.9 91 170.8 91 181 91 C181 100.57 181 110.14 181 120 C190.9 120 200.8 120 211 120 C211 110.1 211 100.2 211 90 C220.9 90 230.8 90 241 90 C241 60.3 241 30.6 241 0 C251.23 0 261.46 0 272 0 C272 9.9 272 19.8 272 30 C291.8 30 311.6 30 332 30 C332 60.03 332 90.06 332 121 C322.1 121 312.2 121 302 121 C302 140.8 302 160.6 302 181 C292.1 181 282.2 181 272 181 C272 190.9 272 200.8 272 211 C262.1 211 252.2 211 242 211 C242 220.9 242 230.8 242 241 C172.04 241 102.08 241 30 241 C30 231.1 30 221.2 30 211 C20.1 211 10.2 211 0 211 C0 201.1 0 191.2 0 181 C-9.9 181 -19.8 181 -30 181 C-30 161.2 -30 141.4 -30 121 C-39.9 121 -49.8 121 -60 121 C-60 90.97 -60 60.94 -60 30 C-40.2 30 -20.4 30 0 30 C0 20.1 0 10.2 0 0 Z " fill="#CFD7DF" transform="translate(120,271)"/>
<path d="M0 0 C10.23 0 20.46 0 31 0 C31 19.8 31 39.6 31 60 C40.9 60 50.8 60 61 60 C61 69.9 61 79.8 61 90 C70.57 90 80.14 90 90 90 C90 80.1 90 70.2 90 60 C94.929375 59.979375 99.85875 59.95875 104.9375 59.9375 C107.2731604 59.92384399 107.2731604 59.92384399 109.65600586 59.90991211 C111.47950562 59.90616577 111.47950562 59.90616577 113.33984375 59.90234375 C114.59144287 59.89710693 115.84304199 59.89187012 117.13256836 59.88647461 C120 60 120 60 121 61 C130.9 61 140.8 61 151 61 C151 40.87 151 20.74 151 0 C200.5 0 250 0 301 0 C301 20.13 301 40.26 301 61 C291.1 61 281.2 61 271 61 C271 70.9 271 80.8 271 91 C280.9 91 290.8 91 301 91 C301 140.5 301 190 301 241 C291.1 241 281.2 241 271 241 C271 231.43 271 221.86 271 212 C261.1 212 251.2 212 241 212 C241 221.9 241 231.8 241 242 C231.1 242 221.2 242 211 242 C211 231.77 211 221.54 211 211 C220.9 211 230.8 211 241 211 C241 201.1 241 191.2 241 181 C221.2 181 201.4 181 181 181 C181 171.1 181 161.2 181 151 C171.1 151 161.2 151 151 151 C151 141.1 151 131.2 151 121 C130.87 121 110.74 121 90 121 C90 130.9 90 140.8 90 151 C80.1 151 70.2 151 60 151 C60 131.2 60 111.4 60 91 C50.1 91 40.2 91 30 91 C30 81.1 30 71.2 30 61 C10.2 61 -9.6 61 -30 61 C-30 50.77 -30 40.54 -30 30 C-20.1 30 -10.2 30 0 30 C0 20.1 0 10.2 0 0 Z " fill="#010000" transform="translate(30,150)"/>
<path d="M0 0 C89.76 0 179.52 0 272 0 C272 9.9 272 19.8 272 30 C262.1 30 252.2 30 242 30 C242 49.47 242 68.94 242 89 C251.9 89 261.8 89 272 89 C272 98.9 272 108.8 272 119 C281.57 119 291.14 119 301 119 C301 109.1 301 99.2 301 89 C310.9 89 320.8 89 331 89 C331 69.2 331 49.4 331 29 C341.23 29 351.46 29 362 29 C362 38.9 362 48.8 362 59 C371.9 59 381.8 59 392 59 C392 69.23 392 79.46 392 90 C372.2 90 352.4 90 332 90 C332 99.9 332 109.8 332 120 C322.1 120 312.2 120 302 120 C302 139.8 302 159.6 302 180 C292.1 180 282.2 180 272 180 C272 170.1 272 160.2 272 150 C261.77 150 251.54 150 241 150 C241 179.7 241 209.4 241 240 C231.1 240 221.2 240 211 240 C211 200.4 211 160.8 211 120 C201.1 120 191.2 120 181 120 C181 110.1 181 100.2 181 90 C190.9 90 200.8 90 211 90 C211 69.87 211 49.74 211 29 C161.5 29 112 29 61 29 C61 49.13 61 69.26 61 90 C51.1 90 41.2 90 31 90 C31 99.9 31 109.8 31 120 C30.67 120 30.34 120 30 120 C30 90.3 30 60.6 30 30 C20.1 30 10.2 30 0 30 C0 20.1 0 10.2 0 0 Z " fill="#010000" transform="translate(120,121)"/>
<path d="M0 0 C10.23 0 20.46 0 31 0 C31 9.9 31 19.8 31 30 C40.57 30 50.14 30 60 30 C60.2475 36.249375 60.2475 36.249375 60.5 42.625 C60.57831055 44.48632568 60.57831055 44.48632568 60.65820312 46.38525391 C61.18200872 60.60907011 61 74.7294769 61 89 C130.3 89 199.6 89 271 89 C271 79.1 271 69.2 271 59 C271.12899036 53.5317299 271.27022472 48.08641792 271.5 42.625 C271.665 38.45875 271.83 34.2925 272 30 C281.57 30 291.14 30 301 30 C301 20.1 301 10.2 301 0 C311.23 0 321.46 0 332 0 C332 19.8 332 39.6 332 60 C322.1 60 312.2 60 302 60 C302 69.9 302 79.8 302 90 C292.1 90 282.2 90 272 90 C272 99.9 272 109.8 272 120 C202.04 120 132.08 120 60 120 C60 110.1 60 100.2 60 90 C50.1 90 40.2 90 30 90 C30 80.1 30 70.2 30 60 C20.1 60 10.2 60 0 60 C0 40.2 0 20.4 0 0 Z " fill="#919AA5" transform="translate(90,392)"/>
<path d="M0 0 C49.5 0 99 0 150 0 C150 20.13 150 40.26 150 61 C140.1 61 130.2 61 120 61 C120 70.9 120 80.8 120 91 C90.3 91 60.6 91 30 91 C30 81.1 30 71.2 30 61 C20.1 61 10.2 61 0 61 C0 40.87 0 20.74 0 0 Z " fill="#D0D8E0" transform="translate(181,150)"/>
<path d="M0 0 C9.9 0 19.8 0 30 0 C30 49.5 30 99 30 150 C20.1 150 10.2 150 0 150 C0 140.43 0 130.86 0 121 C-9.9 121 -19.8 121 -30 121 C-30 130.9 -30 140.8 -30 151 C-39.9 151 -49.8 151 -60 151 C-60 140.77 -60 130.54 -60 120 C-50.1 120 -40.2 120 -30 120 C-30 110.1 -30 100.2 -30 90 C-49.8 90 -69.6 90 -90 90 C-90 70.2 -90 50.4 -90 30 C-60.3 30 -30.6 30 0 30 C0 20.1 0 10.2 0 0 Z " fill="#FD8F00" transform="translate(301,241)"/>
<path d="M0 0 C50.16 0 100.32 0 152 0 C152 9.9 152 19.8 152 30 C161.9 30 171.8 30 182 30 C182 39.9 182 49.8 182 60 C191.9 60 201.8 60 212 60 C212 69.9 212 79.8 212 90 C191.87 90 171.74 90 151 90 C151 70.2 151 50.4 151 30 C101.5 30 52 30 1 30 C1 49.8 1 69.6 1 90 C-19.13 90 -39.26 90 -60 90 C-60 80.1 -60 70.2 -60 60 C-50.1 60 -40.2 60 -30 60 C-30 50.1 -30 40.2 -30 30 C-20.1 30 -10.2 30 0 30 C0 20.1 0 10.2 0 0 Z " fill="#000000" transform="translate(180,0)"/>
<path d="M0 0 C89.1 0 178.2 0 270 0 C270 9.57 270 19.14 270 29 C180.9 29 91.8 29 0 29 C0 19.43 0 9.86 0 0 Z " fill="#3D99E1" transform="translate(121,91)"/>
<path d="M0 0 C9.9 0 19.8 0 30 0 C30 9.9 30 19.8 30 30 C59.7 29.67 89.4 29.34 120 29 C120 38.9 120 48.8 120 59 C50.7 59 -18.6 59 -90 59 C-90 49.1 -90 39.2 -90 29 C-45.45 29.495 -45.45 29.495 0 30 C0 20.1 0 10.2 0 0 Z " fill="#A1AAB7" transform="translate(241,422)"/>
<path d="M0 0 C69.96 0 139.92 0 212 0 C212 9.9 212 19.8 212 30 C142.04 30 72.08 30 0 30 C0 20.1 0 10.2 0 0 Z " fill="#000000" transform="translate(150,482)"/>
<path d="M0 0 C10.23 0 20.46 0 31 0 C31 9.9 31 19.8 31 30 C40.9 30 50.8 30 61 30 C61 40.23 61 50.46 61 61 C41.2 61 21.4 61 1 61 C1 70.9 1 80.8 1 91 C-8.9 91 -18.8 91 -29 91 C-29 110.8 -29 130.6 -29 151 C-38.9 151 -48.8 151 -59 151 C-59 130.87 -59 110.74 -59 90 C-49.43 90 -39.86 90 -30 90 C-30 80.1 -30 70.2 -30 60 C-20.1 60 -10.2 60 0 60 C0 40.2 0 20.4 0 0 Z " fill="#8D4713" transform="translate(451,150)"/>
<path d="M0 0 C10.23 0 20.46 0 31 0 C31 19.8 31 39.6 31 60 C40.9 60 50.8 60 61 60 C61 69.9 61 79.8 61 90 C70.57 90 80.14 90 90 90 C90 110.13 90 130.26 90 151 C80.1 151 70.2 151 60 151 C60 131.2 60 111.4 60 91 C50.1 91 40.2 91 30 91 C30 81.1 30 71.2 30 61 C10.2 61 -9.6 61 -30 61 C-30 50.77 -30 40.54 -30 30 C-20.1 30 -10.2 30 0 30 C0 20.1 0 10.2 0 0 Z " fill="#8D4713" transform="translate(30,150)"/>
<path d="M0 0 C0.33 0 0.66 0 1 0 C1 19.8 1 39.6 1 60 C10.57 60 20.14 60 30 60 C30 109.5 30 159 30 210 C20.1 210 10.2 210 0 210 C0 170.4 0 130.8 0 90 C-9.9 90 -19.8 90 -30 90 C-30 80.1 -30 70.2 -30 60 C-20.1 60 -10.2 60 0 60 C0 40.2 0 20.4 0 0 Z " fill="#894815" transform="translate(331,151)"/>
<path d="M0 0 C49.5 0 99 0 150 0 C150 9.9 150 19.8 150 30 C100.5 30 51 30 0 30 C0 20.1 0 10.2 0 0 Z " fill="#3C98E0" transform="translate(181,30)"/>
<path d="M0 0 C49.5 0 99 0 150 0 C150 0.33 150 0.66 150 1 C140.1 1 130.2 1 120 1 C120 10.9 120 20.8 120 31 C110.1 31 100.2 31 90 31 C90 40.9 90 50.8 90 61 C80.1 61 70.2 61 60 61 C60 51.1 60 41.2 60 31 C50.1 31 40.2 31 30 31 C30 21.1 30 11.2 30 1 C20.1 1 10.2 1 0 1 C0 0.67 0 0.34 0 0 Z " fill="#606D76" transform="translate(181,150)"/>
<path d="M0 0 C9.9 0 19.8 0 30 0 C30 9.9 30 19.8 30 30 C39.9 30 49.8 30 60 30 C60 39.9 60 49.8 60 60 C50.1 60 40.2 60 30 60 C30 50.43 30 40.86 30 31 C20.1 31 10.2 31 0 31 C0 40.9 0 50.8 0 61 C-9.9 61 -19.8 61 -30 61 C-30 50.77 -30 40.54 -30 30 C-20.1 30 -10.2 30 0 30 C0 20.1 0 10.2 0 0 Z " fill="#8F4D1C" transform="translate(271,331)"/>
<path d="M0 0 C9.9 0 19.8 0 30 0 C30 30.03 30 60.06 30 91 C20.1 91 10.2 91 0 91 C0 60.97 0 30.94 0 0 Z " fill="#000000" transform="translate(422,301)"/>
<path d="M0 0 C9.9 0 19.8 0 30 0 C30 30.03 30 60.06 30 91 C20.1 91 10.2 91 0 91 C0 60.97 0 30.94 0 0 Z " fill="#000000" transform="translate(60,301)"/>
<path d="M0 0 C9.9 0 19.8 0 30 0 C30 29.7 30 59.4 30 90 C20.1 90 10.2 90 0 90 C0 60.3 0 30.6 0 0 Z " fill="#020100" transform="translate(331,271)"/>
<path d="M0 0 C29.7 0 59.4 0 90 0 C90 9.9 90 19.8 90 30 C60.3 30 30.6 30 0 30 C0 20.1 0 10.2 0 0 Z " fill="#FE8F00" transform="translate(211,271)"/>
<path d="M0 0 C29.7 0 59.4 0 90 0 C90 9.9 90 19.8 90 30 C60.3 30 30.6 30 0 30 C0 20.1 0 10.2 0 0 Z " fill="#000000" transform="translate(211,241)"/>
<path d="M0 0 C9.9 0 19.8 0 30 0 C30 19.8 30 39.6 30 60 C20.1 60 10.2 60 0 60 C0 40.2 0 20.4 0 0 Z " fill="#000000" transform="translate(392,392)"/>
<path d="M0 0 C9.9 0 19.8 0 30 0 C30 19.8 30 39.6 30 60 C20.1 60 10.2 60 0 60 C0 40.2 0 20.4 0 0 Z " fill="#000000" transform="translate(90,392)"/>
<path d="M0 0 C19.8 0 39.6 0 60 0 C60 9.9 60 19.8 60 30 C40.2 30 20.4 30 0 30 C0 20.1 0 10.2 0 0 Z " fill="#010000" transform="translate(211,301)"/>
<path d="M0 0 C9.9 0 19.8 0 30 0 C30 19.8 30 39.6 30 60 C20.1 60 10.2 60 0 60 C0 40.2 0 20.4 0 0 Z " fill="#8E4812" transform="translate(301,241)"/>
<path d="M0 0 C49.5 0 99 0 150 0 C150 0.33 150 0.66 150 1 C120.3 1 90.6 1 60 1 C60 10.9 60 20.8 60 31 C50.1 31 40.2 31 30 31 C30 21.1 30 11.2 30 1 C20.1 1 10.2 1 0 1 C0 0.67 0 0.34 0 0 Z " fill="#5B676F" transform="translate(181,150)"/>
<path d="M0 0 C9.9 0 19.8 0 30 0 C30 10.23 30 20.46 30 31 C20.1 31 10.2 31 0 31 C0 20.77 0 10.54 0 0 Z " fill="#000000" transform="translate(392,90)"/>
<path d="M0 0 C9.9 0 19.8 0 30 0 C30 10.23 30 20.46 30 31 C20.1 31 10.2 31 0 31 C0 20.77 0 10.54 0 0 Z " fill="#000000" transform="translate(90,90)"/>
<path d="M0 0 C9.9 0 19.8 0 30 0 C30 9.9 30 19.8 30 30 C20.1 30 10.2 30 0 30 C0 20.1 0 10.2 0 0 Z " fill="#000000" transform="translate(362,452)"/>
<path d="M0 0 C9.9 0 19.8 0 30 0 C30 9.9 30 19.8 30 30 C20.1 30 10.2 30 0 30 C0 20.1 0 10.2 0 0 Z " fill="#000000" transform="translate(120,452)"/>
<path d="M0 0 C9.9 0 19.8 0 30 0 C30 9.9 30 19.8 30 30 C20.1 30 10.2 30 0 30 C0 20.1 0 10.2 0 0 Z " fill="#8E4814" transform="translate(241,422)"/>
<path d="M0 0 C9.9 0 19.8 0 30 0 C30 9.9 30 19.8 30 30 C20.1 30 10.2 30 0 30 C0 20.1 0 10.2 0 0 Z " fill="#040301" transform="translate(301,361)"/>
<path d="M0 0 C9.9 0 19.8 0 30 0 C30 9.9 30 19.8 30 30 C20.1 30 10.2 30 0 30 C0 20.1 0 10.2 0 0 Z " fill="#010100" transform="translate(271,331)"/>
<path d="M0 0 C9.9 0 19.8 0 30 0 C30 9.9 30 19.8 30 30 C20.1 30 10.2 30 0 30 C0 20.1 0 10.2 0 0 Z " fill="#8E4812" transform="translate(271,301)"/>
<path d="M0 0 C9.9 0 19.8 0 30 0 C30 9.9 30 19.8 30 30 C20.1 30 10.2 30 0 30 C0 20.1 0 10.2 0 0 Z " fill="#000000" transform="translate(392,271)"/>
<path d="M0 0 C9.9 0 19.8 0 30 0 C30 9.9 30 19.8 30 30 C20.1 30 10.2 30 0 30 C0 20.1 0 10.2 0 0 Z " fill="#010100" transform="translate(181,271)"/>
<path d="M0 0 C9.9 0 19.8 0 30 0 C30 9.9 30 19.8 30 30 C20.1 30 10.2 30 0 30 C0 20.1 0 10.2 0 0 Z " fill="#000000" transform="translate(90,271)"/>
<path d="M0 0 C9.9 0 19.8 0 30 0 C30 9.9 30 19.8 30 30 C20.1 30 10.2 30 0 30 C0 20.1 0 10.2 0 0 Z " fill="#C97300" transform="translate(301,241)"/>
<path d="M0 0 C9.9 0 19.8 0 30 0 C30 9.9 30 19.8 30 30 C20.1 30 10.2 30 0 30 C0 20.1 0 10.2 0 0 Z " fill="#C97300" transform="translate(181,241)"/>
<path d="M0 0 C9.9 0 19.8 0 30 0 C30 9.9 30 19.8 30 30 C20.1 30 10.2 30 0 30 C0 20.1 0 10.2 0 0 Z " fill="#010101" transform="translate(301,211)"/>
<path d="M0 0 C9.9 0 19.8 0 30 0 C30 9.9 30 19.8 30 30 C20.1 30 10.2 30 0 30 C0 20.1 0 10.2 0 0 Z " fill="#010101" transform="translate(181,211)"/>
<path d="M0 0 C9.9 0 19.8 0 30 0 C30 9.9 30 19.8 30 30 C20.1 30 10.2 30 0 30 C0 20.1 0 10.2 0 0 Z " fill="#C87200" transform="translate(151,211)"/>
<path d="M0 0 C9.9 0 19.8 0 30 0 C30 9.9 30 19.8 30 30 C20.1 30 10.2 30 0 30 C0 20.1 0 10.2 0 0 Z " fill="#FE9001" transform="translate(241,181)"/>
<path d="M0 0 C9.9 0 19.8 0 30 0 C30 9.9 30 19.8 30 30 C20.1 30 10.2 30 0 30 C0 20.1 0 10.2 0 0 Z " fill="#D1D8DE" transform="translate(241,151)"/>
<path d="M0 0 C9.57 0 19.14 0 29 0 C29 9.9 29 19.8 29 30 C19.43 30 9.86 30 0 30 C0 20.1 0 10.2 0 0 Z " fill="#CA7300" transform="translate(332,211)"/>
<path d="M0 0 C9.57 0 19.14 0 29 0 C29 9.57 29 19.14 29 29 C19.43 29 9.86 29 0 29 C0 19.43 0 9.86 0 0 Z " fill="#A1AAB7" transform="translate(362,422)"/>
</svg>
